<?xml version="1.0" standalone="no"?><!DOCTYPE svg PUBLIC "-//W3C//DTD SVG 1.1//EN" "http://www.w3.org/Graphics/SVG/1.1/DTD/svg11.dtd"><svg t="1645498850573" class="icon" viewBox="0 0 1024 1024" version="1.1" xmlns="http://www.w3.org/2000/svg" p-id="16611" xmlns:xlink="http://www.w3.org/1999/xlink" width="48" height="48"><defs><style type="text/css"></style></defs><path d="M334.147368 215.578947H148.210526c-16.168421 0-26.947368-10.778947-26.947368-26.947368V148.210526c0-16.168421 10.778947-26.947368 26.947368-26.947368h185.936842c16.168421 0 26.947368 10.778947 26.947369 26.947368V188.631579c0 13.473684-10.778947 26.947368-26.947369 26.947368zM148.210526 148.210526V188.631579h185.936842V148.210526H148.210526z m0-13.473684v13.473684V134.736842z" fill="#515151" p-id="16612"></path><path d="M983.578947 902.736842h-943.157894C18.863158 902.736842 0 883.873684 0 862.315789V220.968421c0-21.557895 18.863158-40.421053 40.421053-40.421053h943.157894c21.557895 0 40.421053 18.863158 40.421053 40.421053V862.315789c0 21.557895-18.863158 40.421053-40.421053 40.421053zM40.421053 207.494737c-8.084211 0-13.473684 8.084211-13.473685 13.473684V862.315789c0 8.084211 5.389474 13.473684 13.473685 13.473685h943.157894c8.084211 0 13.473684-5.389474 13.473685-13.473685V220.968421c0-8.084211-5.389474-13.473684-13.473685-13.473684h-943.157894z" fill="#515151" p-id="16613"></path><path d="M662.905263 794.947368c-140.126316 0-253.305263-113.178947-253.305263-253.305263s113.178947-253.305263 253.305263-253.305263 253.305263 113.178947 253.305263 253.305263-113.178947 253.305263-253.305263 253.305263z m0-479.663157c-126.652632 0-226.357895 102.4-226.357895 226.357894s102.4 226.357895 226.357895 226.357895 226.357895-102.4 226.357895-226.357895-102.4-226.357895-226.357895-226.357894z" fill="#515151" p-id="16614"></path><path d="M662.905263 676.378947c-72.757895 0-134.736842-59.284211-134.736842-134.736842 0-72.757895 59.284211-134.736842 134.736842-134.736842s134.736842 59.284211 134.736842 134.736842-61.978947 134.736842-134.736842 134.736842z m0-239.831579c-59.284211 0-107.789474 48.505263-107.789474 107.789474s48.505263 107.789474 107.789474 107.789474 107.789474-48.505263 107.789474-107.789474-48.505263-107.789474-107.789474-107.789474zM226.357895 374.568421H134.736842c-16.168421 0-26.947368-10.778947-26.947368-26.947368v-32.336842c0-16.168421 10.778947-26.947368 26.947368-26.947369h94.31579c16.168421 0 26.947368 10.778947 26.947368 26.947369v32.336842c-2.694737 16.168421-13.473684 26.947368-29.642105 26.947368zM134.736842 315.284211v32.336842h94.31579v-32.336842H134.736842z m0-13.473685v13.473685-13.473685z" fill="#515151" p-id="16615"></path></svg>