<?xml version="1.0" standalone="no"?><!DOCTYPE svg PUBLIC "-//W3C//DTD SVG 1.1//EN" "http://www.w3.org/Graphics/SVG/1.1/DTD/svg11.dtd"><svg t="1648640186070" class="icon" viewBox="0 0 1024 1024" version="1.1" xmlns="http://www.w3.org/2000/svg" p-id="11481" xmlns:xlink="http://www.w3.org/1999/xlink" width="128" height="128"><defs><style type="text/css">@font-face { font-family: feedback-iconfont; src: url("//at.alicdn.com/t/font_1031158_u69w8yhxdu.woff2?t=1630033759944") format("woff2"), url("//at.alicdn.com/t/font_1031158_u69w8yhxdu.woff?t=1630033759944") format("woff"), url("//at.alicdn.com/t/font_1031158_u69w8yhxdu.ttf?t=1630033759944") format("truetype"); }
</style></defs><path d="M902.4 64c12.8 0 32 6.4 38.4 19.2s19.2 19.2 19.2 38.4v780.8c0 12.8-6.4 32-19.2 38.4s-19.2 19.2-38.4 19.2H121.6c-12.8 0-32-6.4-38.4-19.2s-19.2-19.2-19.2-38.4V121.6c0-12.8 6.4-32 19.2-38.4s19.2-19.2 38.4-19.2h780.8z m0-64H121.6C51.2 0 0 51.2 0 121.6v780.8c0 64 51.2 121.6 121.6 121.6h780.8c64 0 121.6-51.2 121.6-121.6V121.6C1024 51.2 972.8 0 902.4 0z" fill="#1296db" p-id="11482"></path><path d="M435.2 627.2l300.8-300.8c12.8-12.8 32-12.8 44.8 0 12.8 12.8 12.8 32 0 44.8l-326.4 326.4c0 6.4-6.4 6.4-19.2 6.4-6.4 0-19.2 0-25.6-6.4L236.8 518.4c-12.8-12.8-12.8-32 0-44.8 12.8-12.8 32-12.8 44.8 0l153.6 153.6z" fill="#1296db" p-id="11483" data-spm-anchor-id="a313x.7781069.0.i15" class=""></path></svg>