<?xml version="1.0" standalone="no"?><!DOCTYPE svg PUBLIC "-//W3C//DTD SVG 1.1//EN" "http://www.w3.org/Graphics/SVG/1.1/DTD/svg11.dtd"><svg t="1647591423077" class="icon" viewBox="0 0 1024 1024" version="1.1" xmlns="http://www.w3.org/2000/svg" p-id="4223" xmlns:xlink="http://www.w3.org/1999/xlink" width="64" height="64"><defs><style type="text/css"></style></defs><path d="M908.3 882.3c7 7 7 18.4 0 25.5-7 7-18.4 7-25.5 0L512 537 141.1 907.8c-7 7-18.4 7-25.4 0s-7-18.4 0-25.5L486 512 115.7 141.7c-7-7-7-18.4 0-25.5 7-7 18.4-7 25.4 0L512 487.1l370.8-370.9c7-7 18.4-7 25.5 0 7 7 7 18.4 0 25.5L538 512l370.3 370.3z" p-id="4224" fill="#1296db"></path></svg>