<?xml version="1.0" standalone="no"?><!DOCTYPE svg PUBLIC "-//W3C//DTD SVG 1.1//EN" "http://www.w3.org/Graphics/SVG/1.1/DTD/svg11.dtd"><svg t="1649919558568" class="icon" viewBox="0 0 1024 1024" version="1.1" xmlns="http://www.w3.org/2000/svg" p-id="11141" xmlns:xlink="http://www.w3.org/1999/xlink" width="128" height="128"><defs><style type="text/css">@font-face { font-family: feedback-iconfont; src: url("//at.alicdn.com/t/font_1031158_u69w8yhxdu.woff2?t=1630033759944") format("woff2"), url("//at.alicdn.com/t/font_1031158_u69w8yhxdu.woff?t=1630033759944") format("woff"), url("//at.alicdn.com/t/font_1031158_u69w8yhxdu.ttf?t=1630033759944") format("truetype"); }
</style></defs><path d="M1004 858.4H20c-8.8 0-16-7.2-16-16V20c0-8.8 7.2-16 16-16h984c8.8 0 16 7.2 16 16v822.4c0 8.8-7.2 16-16 16z m-968-32h952V36H36v790.4z" p-id="11142"></path><path d="M904 688.8H120c-4.8 0-8-3.2-8-8V116.8c0-4.8 3.2-8 8-8h784c4.8 0 8 3.2 8 8v564c0 4.8-3.2 8-8 8z m-776-16h768V124.8H128v548zM774.4 1020H249.6c-8.8 0-16-7.2-16-16s7.2-16 16-16h524c8.8 0 16 7.2 16 16s-6.4 16-15.2 16z" p-id="11143"></path><path d="M368.8 1020c-8.8 0-16-7.2-16-16v-161.6c0-8.8 7.2-16 16-16s16 7.2 16 16v161.6c0 8.8-7.2 16-16 16zM655.2 1020c-8.8 0-16-7.2-16-16v-161.6c0-8.8 7.2-16 16-16s16 7.2 16 16v161.6c0 8.8-7.2 16-16 16zM732 404c-2.4 0-4-0.8-5.6-2.4C608 284 416 284 297.6 401.6c-3.2 3.2-8 3.2-11.2 0-3.2-3.2-3.2-8 0-11.2 124.8-124 327.2-124 452 0 3.2 3.2 3.2 8 0 11.2-2.4 1.6-4 2.4-6.4 2.4z" p-id="11144"></path><path d="M652 484.8c-2.4 0-4-0.8-5.6-2.4-73.6-73.6-194.4-73.6-268 0-3.2 3.2-8 3.2-11.2 0-3.2-3.2-3.2-8 0-11.2 80-80 210.4-80 290.4 0 3.2 3.2 3.2 8 0 11.2-1.6 1.6-4 2.4-5.6 2.4zM571.2 564.8c-2.4 0-4-0.8-5.6-2.4-29.6-29.6-77.6-29.6-107.2 0-3.2 3.2-8 3.2-11.2 0-3.2-3.2-3.2-8 0-11.2 36-36 93.6-36 129.6 0 3.2 3.2 3.2 8 0 11.2-1.6 1.6-4 2.4-5.6 2.4zM767.2 788c-19.2 0-34.4-15.2-34.4-34.4s15.2-34.4 34.4-34.4 34.4 15.2 34.4 34.4-15.2 34.4-34.4 34.4z m0-52.8c-10.4 0-18.4 8-18.4 18.4 0 10.4 8 18.4 18.4 18.4 10.4 0 18.4-8 18.4-18.4 0-9.6-8-18.4-18.4-18.4zM877.6 788c-19.2 0-34.4-15.2-34.4-34.4s15.2-34.4 34.4-34.4 34.4 15.2 34.4 34.4-15.2 34.4-34.4 34.4z m0-52.8c-10.4 0-18.4 8-18.4 18.4 0 10.4 8 18.4 18.4 18.4 10.4 0 18.4-8 18.4-18.4 0-9.6-8-18.4-18.4-18.4z" p-id="11145"></path></svg>