<?xml version="1.0" standalone="no"?><!DOCTYPE svg PUBLIC "-//W3C//DTD SVG 1.1//EN" "http://www.w3.org/Graphics/SVG/1.1/DTD/svg11.dtd"><svg t="1648782070614" class="icon" viewBox="0 0 1024 1024" version="1.1" xmlns="http://www.w3.org/2000/svg" p-id="3556" xmlns:xlink="http://www.w3.org/1999/xlink" width="128" height="128"><defs><style type="text/css">@font-face { font-family: feedback-iconfont; src: url("//at.alicdn.com/t/font_1031158_u69w8yhxdu.woff2?t=1630033759944") format("woff2"), url("//at.alicdn.com/t/font_1031158_u69w8yhxdu.woff?t=1630033759944") format("woff"), url("//at.alicdn.com/t/font_1031158_u69w8yhxdu.ttf?t=1630033759944") format("truetype"); }
</style></defs><path d="M885.333333 85.333333H309.333333a53.393333 53.393333 0 0 0-53.333333 53.333334v117.333333H138.666667a53.393333 53.393333 0 0 0-53.333334 53.333333v576a53.393333 53.393333 0 0 0 53.333334 53.333334h576a53.393333 53.393333 0 0 0 53.333333-53.333334v-117.333333h117.333333a53.393333 53.393333 0 0 0 53.333334-53.333333V138.666667a53.393333 53.393333 0 0 0-53.333334-53.333334z m-160 800a10.666667 10.666667 0 0 1-10.666666 10.666667H138.666667a10.666667 10.666667 0 0 1-10.666667-10.666667V309.333333a10.666667 10.666667 0 0 1 10.666667-10.666666h576a10.666667 10.666667 0 0 1 10.666666 10.666666z m170.666667-170.666666a10.666667 10.666667 0 0 1-10.666667 10.666666h-117.333333V309.333333a53.393333 53.393333 0 0 0-53.333333-53.333333H298.666667V138.666667a10.666667 10.666667 0 0 1 10.666666-10.666667h576a10.666667 10.666667 0 0 1 10.666667 10.666667z" fill="#8a8a8a" p-id="3557"></path></svg>