<?xml version="1.0" standalone="no"?><!DOCTYPE svg PUBLIC "-//W3C//DTD SVG 1.1//EN" "http://www.w3.org/Graphics/SVG/1.1/DTD/svg11.dtd"><svg t="1645504077547" class="icon" viewBox="0 0 1024 1024" version="1.1" xmlns="http://www.w3.org/2000/svg" p-id="34471" width="48" height="48" xmlns:xlink="http://www.w3.org/1999/xlink"><defs><style type="text/css"></style></defs><path d="M915.362386 63.405075 107.431086 63.405075c-23.743723 0-42.975505 19.287275-42.975505 42.945091 0 17.990746 11.138121 33.357735 26.929406 39.702234l0 579.691705c0 8.826016 7.134783 16.045441 16.045075 16.045441l387.906248 0 0 80.785931L236.132464 926.20365c-8.233859 3.355421-12.21059 12.687974-8.938946 20.866237 2.510273 6.259564 8.543934 10.123568 14.888692 10.123568 1.974039 0 4.004361-0.422625 5.949746-1.156336l263.350454-105.262392 263.406738 105.262392c1.917754 0.733711 3.976731 1.156336 5.949746 1.156336 6.344758 0 12.350789-3.862981 14.860038-10.123568 3.270621-8.17724-0.676433-17.509792-8.882662-20.866237L527.398831 822.576501l0-80.785931 387.962532 0c8.826378 0 16.016422-7.219425 16.016422-16.045441L931.377784 146.053424c15.735001-6.344498 26.929406-21.712511 26.929406-39.702234C958.308214 82.693374 939.076432 63.405075 915.362386 63.405075zM899.288657 709.72834 123.448531 709.72834 123.448531 149.296281l775.840126 0L899.288657 709.72834zM915.362386 117.235075 107.431086 117.235075c-6.062314 0-10.912984-4.850471-10.912984-10.884908 0-6.005784 4.85067-10.856255 10.912984-10.856255l807.930276 0c5.9784 0 10.855677 4.850471 10.855677 10.856255C926.218063 112.385627 921.339763 117.235075 915.362386 117.235075zM511.326125 607.088682c97.964093 0 177.625604-79.659271 177.625604-177.533392 0-97.987708-79.662535-177.618327-177.625604-177.618327-97.906785 0-177.54169 79.630618-177.54169 177.618327C333.784435 527.429411 413.41934 607.088682 511.326125 607.088682zM655.253899 413.509848 527.398831 413.509848l-0.056284-127.877459C594.681924 293.161876 647.724104 346.230536 655.253899 413.509848zM495.30868 285.632389l0.028654 159.910013 159.916565 0c-8.065007 72.665996-69.14354 129.48405-143.927774 129.48405-80.198769 0-145.450516-65.250096-145.450516-145.472186C365.875609 354.85803 422.66836 293.697065 495.30868 285.632389z" p-id="34472" fill="#515151"></path></svg>