<?xml version="1.0" standalone="no"?><!DOCTYPE svg PUBLIC "-//W3C//DTD SVG 1.1//EN" "http://www.w3.org/Graphics/SVG/1.1/DTD/svg11.dtd"><svg t="1646218128669" class="icon" viewBox="0 0 1024 1024" version="1.1" xmlns="http://www.w3.org/2000/svg" p-id="5260" xmlns:xlink="http://www.w3.org/1999/xlink" width="32" height="32"><defs><style type="text/css"></style></defs><path d="M467.921455 929.629091c-253.998545 0-460.637091-206.638545-460.637091-460.613818 0-254.021818 206.638545-460.660364 460.637091-460.660364s460.637091 206.638545 460.637091 460.660364C928.558545 722.990545 721.943273 929.629091 467.921455 929.629091zM467.921455 54.900364c-228.328727 0-414.091636 185.762909-414.091636 414.114909 0 228.328727 185.762909 414.068364 414.091636 414.068364 228.352 0 414.091636-185.739636 414.091636-414.068364C882.013091 240.663273 696.273455 54.900364 467.921455 54.900364z" p-id="5261" fill="#1296db"></path><path d="M994.629818 1015.645091c-5.701818 0-11.426909-2.094545-15.941818-6.306909l-220.066909-206.592c-9.355636-8.797091-9.844364-23.552-1.047273-32.907636 8.820364-9.355636 23.552-9.797818 32.907636-1.047273l220.066909 206.592c9.355636 8.797091 9.844364 23.552 1.047273 32.907636C1007.034182 1013.178182 1000.843636 1015.645091 994.629818 1015.645091z" p-id="5262" fill="#1296db"></path></svg>