<?xml version="1.0" standalone="no"?><!DOCTYPE svg PUBLIC "-//W3C//DTD SVG 1.1//EN" "http://www.w3.org/Graphics/SVG/1.1/DTD/svg11.dtd"><svg t="1645512896419" class="icon" viewBox="0 0 1024 1024" version="1.1" xmlns="http://www.w3.org/2000/svg" p-id="47505" xmlns:xlink="http://www.w3.org/1999/xlink" width="48" height="48"><defs><style type="text/css"></style></defs><path d="M941.3 297.8v-94c0-23.3-19-42.3-42.3-42.3H337.6l-19.4-19.4H104c-21.4 0-38.9 17.5-38.9 38.9v662c0 21.4 17.5 38.9 38.9 38.9h817.7c21.4 0 38.9-17.5 38.9-38.9V297.8h-19.3zM899 200.5c2 0 3.3 1.4 3.3 3.3v94h-39v-45.3c0-17.9-14.6-32.5-32.5-32.5H396.1l-19.5-19.5H899z m-55.1 97.3H474l-58.4-58.4h415.2c7.3 0 13.1 5.7 13.1 13.1v45.3z m77.9 545.1l-817.7 0.1-0.1-0.1V181.1l0.1-0.1h198l144.4 144.4 11.4 11.4H921.8v506.1z" p-id="47506" fill="#515151"></path></svg>