<?xml version="1.0" standalone="no"?><!DOCTYPE svg PUBLIC "-//W3C//DTD SVG 1.1//EN" "http://www.w3.org/Graphics/SVG/1.1/DTD/svg11.dtd"><svg t="1645499065514" class="icon" viewBox="0 0 1024 1024" version="1.1" xmlns="http://www.w3.org/2000/svg" p-id="26687" xmlns:xlink="http://www.w3.org/1999/xlink" width="48" height="48"><defs><style type="text/css"></style></defs><path d="M629.6 808c-22.4 0-43.2-12.8-52.8-33.6l-23.2-50.4c-6.4-14.4-7.2-29.6-2.4-44 5.6-14.4 16-26.4 29.6-32.8l309.6-145.6c8-4 16-5.6 24.8-5.6 22.4 0 43.2 12.8 52.8 33.6l23.2 50.4c13.6 28.8 0.8 64-28 77.6l-309.6 145.6c-7.2 3.2-16 4.8-24 4.8z m286.4-280c-4 0-7.2 0.8-11.2 2.4L594.4 676c-12.8 6.4-18.4 21.6-12.8 34.4l23.2 50.4c4 8.8 13.6 15.2 23.2 15.2 4 0 7.2-0.8 11.2-2.4l309.6-145.6c12.8-6.4 18.4-21.6 12.8-34.4l-23.2-50.4c-3.2-8.8-12.8-15.2-22.4-15.2z" p-id="26688" fill="#E74C3C"></path><path d="M971.2 841.6c-18.4 0-35.2-10.4-42.4-27.2l-60.8-129.6c-4-8 0-17.6 8-21.6l56.8-26.4c4-1.6 8-2.4 12-0.8 4 1.6 7.2 4.8 8.8 8l60.8 129.6c11.2 23.2 0.8 52-22.4 62.4-7.2 4-14.4 5.6-20.8 5.6z m-68-156l54.4 115.2c3.2 7.2 12.8 10.4 20 7.2 7.2-3.2 11.2-12.8 7.2-20l-54.4-115.2-27.2 12.8zM755.2 942.4c-18.4 0-35.2-10.4-42.4-27.2l-60.8-129.6c-1.6-4-2.4-8-0.8-12 1.6-4 4.8-7.2 8-8.8l56.8-26.4c8-4 17.6 0 21.6 8l60.8 129.6c5.6 11.2 5.6 24 1.6 36-4 12-12.8 21.6-24 26.4-7.2 3.2-13.6 4-20.8 4z m-68-156l54.4 115.2c3.2 7.2 12.8 10.4 20 7.2 4-1.6 6.4-4.8 8-8.8 1.6-4 0.8-8-0.8-11.2l-54.4-115.2-27.2 12.8zM594.4 675.2c-2.4 0-4.8-0.8-7.2-1.6-4-2.4-7.2-6.4-8.8-11.2l-48-233.6c-1.6-7.2 2.4-14.4 8.8-17.6l196-92c6.4-3.2 14.4-1.6 19.2 4.8L904 509.6c3.2 4 4 8.8 3.2 13.6-0.8 4.8-4 8.8-8.8 11.2L600.8 673.6c-1.6 0.8-4 1.6-6.4 1.6z m-29.6-240.8l41.6 201.6 260-122.4-128.8-160-172.8 80.8z" p-id="26689" fill="#E74C3C"></path><path d="M572.8 428.8c-2.4 0-4.8-0.8-7.2-1.6-4-2.4-7.2-6.4-8.8-11.2l-43.2-189.6c-1.6-7.2 1.6-15.2 8.8-18.4l67.2-32c7.2-3.2 15.2-1.6 19.2 4.8L728 336c3.2 4 4 8.8 3.2 13.6-0.8 4.8-4 8.8-8.8 10.4l-142.4 67.2c-2.4 0.8-4.8 1.6-7.2 1.6zM548 232L584 389.6l106.4-50.4-98.4-128-44 20.8zM614.4 495.2c-3.2 0-5.6-1.6-7.2-4.8-1.6-4 0-8.8 4-10.4l136.8-64c4-1.6 8.8 0 10.4 4 1.6 4 0 8.8-4 10.4l-136.8 64c-0.8 0-1.6 0.8-3.2 0.8zM631.2 575.2c-3.2 0-5.6-1.6-7.2-4.8-1.6-4 0-8.8 4-10.4l171.2-80.8c4-1.6 8.8 0 10.4 4 1.6 4 0 8.8-4 10.4L634.4 574.4c-0.8 0.8-1.6 0.8-3.2 0.8z" p-id="26690" fill="#E74C3C"></path><path d="M364 1020c-54.4 0-107.2-31.2-132-83.2L7.2 457.6c-4-8 0-17.6 8-21.6s17.6 0 21.6 8l224.8 479.2c12.8 27.2 35.2 48 64 58.4 28.8 10.4 59.2 8.8 86.4-4 56.8-26.4 80.8-94.4 54.4-150.4l-264-560.8c-20.8-44-23.2-94.4-6.4-140 16.8-46.4 50.4-83.2 94.4-104 92-43.2 201.6-3.2 244 88L577.6 200c4 8 0 17.6-8 21.6s-17.6 0-21.6-8l-42.4-91.2c-35.2-75.2-125.6-107.2-200.8-72-36.8 17.6-64.8 48-78.4 85.6-13.6 38.4-12 79.2 5.6 116l264 560.8c16.8 35.2 18.4 74.4 4.8 111.2-12.8 36.8-40 65.6-75.2 82.4-20 8.8-40.8 13.6-61.6 13.6z" p-id="26691" fill="#E74C3C"></path></svg>