<?xml version="1.0" standalone="no"?><!DOCTYPE svg PUBLIC "-//W3C//DTD SVG 1.1//EN" "http://www.w3.org/Graphics/SVG/1.1/DTD/svg11.dtd"><svg t="1645498887958" class="icon" viewBox="0 0 1024 1024" version="1.1" xmlns="http://www.w3.org/2000/svg" p-id="18123" xmlns:xlink="http://www.w3.org/1999/xlink" width="48" height="48"><defs><style type="text/css"></style></defs><path d="M334.4 834.4c-80 0-144.8-64.8-144.8-144.8 0-80 64.8-144.8 144.8-144.8 80 0 144.8 64.8 144.8 144.8 0 80-64.8 144.8-144.8 144.8z m0-273.6c-71.2 0-128.8 57.6-128.8 128.8 0 71.2 57.6 128.8 128.8 128.8 71.2 0 128.8-57.6 128.8-128.8 0-71.2-57.6-128.8-128.8-128.8z" p-id="18124" fill="#515151"></path><path d="M380 1020H289.6c-8.8 0-16-7.2-16-16V968c-32.8-7.2-64-20-92.8-38.4l-25.6 25.6c-5.6 5.6-16.8 5.6-22.4 0l-64-64c-6.4-6.4-6.4-16 0-22.4l25.6-25.6C76 814.4 63.2 784 56 750.4H20c-8.8 0-16-7.2-16-16V644c0-4 1.6-8 4.8-11.2 3.2-3.2 7.2-4.8 11.2-4.8H56c7.2-32.8 20-64 38.4-92.8l-25.6-25.6c-6.4-6.4-6.4-16 0-22.4l64-64c3.2-3.2 7.2-4.8 11.2-4.8 4 0 8 1.6 11.2 4.8l25.6 25.6c28.8-18.4 60-31.2 92.8-38.4v-36c0-8.8 7.2-16 16-16h90.4c8.8 0 16 7.2 16 16v36c32.8 7.2 64 20 92.8 38.4l25.6-25.6c5.6-6.4 16.8-6.4 22.4 0l64 64c3.2 3.2 4.8 7.2 4.8 11.2s-1.6 8-4.8 11.2l-25.6 25.6c18.4 28.8 31.2 60 38.4 92.8h36c8.8 0 16 7.2 16 16v90.4c0 8.8-7.2 16-16 16h-36c-7.2 32.8-20 64-38.4 92.8l25.6 25.6c6.4 6.4 6.4 16 0 22.4l-64 64c-6.4 6.4-16 6.4-22.4 0l-25.6-25.6c-28.8 18.4-60 31.2-92.8 38.4v36c0 8.8-7.2 16-16 16z m-74.4-32h58.4v-32.8c0-8 5.6-14.4 13.6-16 37.6-6.4 72.8-20.8 104-43.2 6.4-4.8 15.2-4 20.8 1.6l23.2 23.2 40.8-40.8-23.2-23.2c-5.6-5.6-6.4-14.4-1.6-20.8 22.4-31.2 36.8-66.4 43.2-104 1.6-8 8-13.6 16-13.6h32.8v-58.4H600c-8 0-14.4-5.6-16-13.6-6.4-37.6-20.8-72.8-43.2-104-4.8-6.4-4-15.2 1.6-20.8l23.2-23.2-40.8-40.8-23.2 23.2c-5.6 5.6-14.4 6.4-20.8 1.6-31.2-22.4-66.4-36.8-104-43.2-8-1.6-13.6-8-13.6-16v-32.8h-58.4V424c0 8-5.6 14.4-13.6 16-37.6 6.4-72.8 20.8-104 43.2-6.4 4.8-15.2 4-20.8-1.6l-22.4-24-40.8 40.8 23.2 23.2c5.6 5.6 6.4 14.4 1.6 20.8-22.4 31.2-36.8 66.4-43.2 104-1.6 8-8 13.6-16 13.6H36v58.4h32.8c8 0 14.4 5.6 16 13.6 6.4 37.6 20.8 72.8 43.2 104 4.8 6.4 4 15.2-1.6 20.8l-23.2 23.2 40.8 40.8 23.2-23.2c5.6-5.6 14.4-6.4 20.8-1.6 31.2 22.4 66.4 36.8 104 43.2 8 1.6 13.6 8 13.6 16v32.8zM768.8 367.2c-45.6 0-86.4-27.2-104-69.6-24-57.6 3.2-123.2 60.8-147.2 13.6-5.6 28-8.8 43.2-8.8 45.6 0 86.4 27.2 104 69.6 24 57.6-3.2 123.2-60.8 147.2-13.6 6.4-28 8.8-43.2 8.8z m0-208.8c-12.8 0-24.8 2.4-36.8 7.2-48.8 20-72.8 76.8-52 125.6 15.2 36 49.6 59.2 88.8 59.2 12.8 0 24.8-2.4 36.8-7.2 48.8-20 72.8-76.8 52-125.6-14.4-36-49.6-59.2-88.8-59.2z" p-id="18125" fill="#515151"></path><path d="M828.8 506.4c-6.4 0-12-4-14.4-9.6l-9.6-22.4c-24 4-48 4-72 0L724 496c-1.6 4-4.8 7.2-8.8 8.8-4 1.6-8 1.6-12 0l-64-26.4c-4-1.6-7.2-4.8-8.8-8.8-1.6-4-1.6-8 0-12l9.6-22.4c-20-14.4-36.8-31.2-51.2-51.2l-22.4 9.6c-4 1.6-8 1.6-12 0s-7.2-4.8-8.8-8.8l-26.4-64c-3.2-8 0.8-17.6 8.8-20.8l22.4-9.6c-4-24-4-48 0-72L528 209.6c-4-1.6-7.2-4.8-8.8-8.8-1.6-4-1.6-8 0-12l26.4-64c1.6-4 4.8-7.2 8.8-8.8 4-1.6 8-1.6 12 0l22.4 9.6c14.4-20 31.2-36.8 51.2-51.2l-9.6-22.4c-1.6-4-1.6-8 0-12s4.8-7.2 8.8-8.8l64-26.4c8-3.2 17.6 0.8 20.8 8.8l9.6 22.4c24-4 48-4 72 0l9.6-22.4c1.6-4 4.8-7.2 8.8-8.8 4-1.6 8-1.6 12 0l64 26.4c4 1.6 7.2 4.8 8.8 8.8 1.6 4 1.6 8 0 12l-9.6 22.4c20 14.4 36.8 31.2 51.2 51.2l22.4-9.6c4-1.6 8-1.6 12 0s7.2 4.8 8.8 8.8l26.4 64c1.6 4 1.6 8 0 12s-4.8 7.2-8.8 8.8l-22.4 9.6c4 24 4 48 0 72l22.4 9.6c4 1.6 7.2 4.8 8.8 8.8s1.6 8 0 12l-26.4 64c-1.6 4-4.8 7.2-8.8 8.8-4 1.6-8 1.6-12 0l-22.4-9.6c-14.4 20-31.2 36.8-51.2 51.2l9.6 22.4c1.6 4 1.6 8 0 12s-4.8 7.2-8.8 8.8l-64 26.4c-3.2 0-4.8 0.8-7.2 0.8z m-14.4-67.2c6.4 0 12 4 14.4 9.6l8 20 34.4-14.4-8-20c-3.2-7.2 0-15.2 6.4-20 24-15.2 44-35.2 60-60 4-6.4 12.8-9.6 20-6.4l20 8 14.4-34.4-20-8c-7.2-3.2-11.2-10.4-9.6-18.4 6.4-28 6.4-56.8 0-84-1.6-8 2.4-15.2 9.6-18.4l20-8-14.4-34.4-20 8c-7.2 3.2-15.2 0-20-6.4-15.2-24-35.2-44-60-60-6.4-4-9.6-12.8-6.4-20l8-20-34.4-14.4-8 20c-3.2 7.2-10.4 11.2-18.4 9.6-27.2-3.2-56-3.2-84 3.2-7.2 1.6-15.2-2.4-18.4-9.6l-8-20-34.4 14.4 8 20c3.2 7.2 0 15.2-6.4 20-24 15.2-44 35.2-60 60-4 6.4-12.8 9.6-20 6.4l-20-8-14.4 34.4 20 8c7.2 3.2 11.2 10.4 9.6 18.4-6.4 28-6.4 56.8 0 84 1.6 8-2.4 15.2-9.6 18.4l-20 8 14.4 34.4 20-8c7.2-3.2 15.2 0 20 6.4 15.2 24 35.2 44 60 60 6.4 4 9.6 12.8 6.4 20l-8 20 34.4 14.4 8-20c3.2-7.2 10.4-11.2 18.4-9.6 28 6.4 56.8 6.4 84 0 1.6-2.4 3.2-3.2 4-3.2z" p-id="18126" fill="#515151"></path></svg>