<?xml version="1.0" standalone="no"?><!DOCTYPE svg PUBLIC "-//W3C//DTD SVG 1.1//EN" "http://www.w3.org/Graphics/SVG/1.1/DTD/svg11.dtd"><svg t="1645605282824" class="icon" viewBox="0 0 1024 1024" version="1.1" xmlns="http://www.w3.org/2000/svg" p-id="52067" xmlns:xlink="http://www.w3.org/1999/xlink" width="48" height="48"><defs><style type="text/css"></style></defs><path d="M511.997805 511.997805m-490.052095 0a490.052095 490.052095 0 1 0 980.104191 0 490.052095 490.052095 0 1 0-980.104191 0Z" fill="#B3B3C7" p-id="52068"></path><path d="M505.572102 515.210657m-303.693515 0a303.693514 303.693514 0 1 0 607.387029 0 303.693514 303.693514 0 1 0-607.387029 0Z" fill="#F0F0FF" p-id="52069"></path><path d="M505.572102 233.462853c75.256229 0 146.013587 29.306301 199.227545 82.524648 53.213958 53.213958 82.520259 123.966927 82.520259 199.223156s-29.306301 146.013587-82.520259 199.223157c-53.213958 53.218347-123.966927 82.529037-199.227545 82.529037-155.358071 0-281.743415-126.389734-281.743416-281.743415 0-155.358071 126.385344-281.756583 281.743416-281.756583z m-325.639225 281.747804c0 179.555411 146.079425 325.634835 325.634835 325.634836 86.979627 0 168.758121-33.875398 230.25878-95.376056 61.509436-61.500658 95.371667-143.279152 95.371667-230.25878s-33.871009-168.753732-95.371667-230.258779c-61.500658-61.505047-143.283541-95.376056-230.25878-95.376056-179.555411-0.004389-325.634835 146.075035-325.634835 325.634835z" fill="#6E6E96" p-id="52070"></path><path d="M505.062961 513.389163m-211.345966 0a211.345966 211.345966 0 1 0 422.691932 0 211.345966 211.345966 0 1 0-422.691932 0Z" fill="#F0F0FF" p-id="52071"></path><path d="M694.467607 513.389163c0 104.435245-84.965011 189.400256-189.404646 189.400257-104.435245 0-189.400256-84.965011-189.400256-189.400257s84.965011-189.400256 189.400256-189.400256 189.404645 84.960622 189.404646 189.400256zM505.058572 280.093098c-128.636974 0-233.291676 104.654702-233.291677 233.291676 0 128.645753 104.654702 233.291676 233.291677 233.291677 128.641363 0 233.291676-104.659091 233.291676-233.291677 0.008778-128.632585-104.650313-233.291676-233.291676-233.291676z" fill="#6E6E96" p-id="52072"></path><path d="M511.7169 519.753419m-67.175818 0a67.175819 67.175819 0 1 0 134.351637 0 67.175819 67.175819 0 1 0-134.351637 0Z" fill="#F0F0FF" p-id="52073"></path><path d="M511.7169 474.523311c24.947883 0 45.238887 20.291004 45.238887 45.230108 0 24.943494-20.291004 45.234498-45.238887 45.234498-24.943494 0-45.234498-20.291004-45.234497-45.234498 0-24.939105 20.291004-45.230108 45.234497-45.230108z m-89.125917 45.230108c0 49.140834 39.980695 89.125918 89.125917 89.125918 49.140834 0 89.130307-39.976305 89.130307-89.125918s-39.980695-89.121529-89.130307-89.121528c-49.145223 0-89.125918 39.980695-89.125917 89.121528zM478.930009 811.60064c-0.05267 1.593259-3.142626 159.7121 183.646092 187.368083l6.430093-43.426171c-147.28205-21.805258-146.320827-137.678607-146.211099-142.603224l0.008778-0.250181c0.008778-0.114118 0.008778-0.368688 0.008778-0.368688l-43.882642-0.719819zM633.568261 786.622032c0.754932 1.404525 77.134782 139.886345 252.726797 70.450119l-16.143264-40.819021c-138.451096 54.758936-195.558223-46.072824-197.92397-50.391739l-38.659563 20.760641zM754.989486 687.668826c1.360634 0.842715 136.748109 82.581707 254.100599-65.354325l-34.384539-27.278518c-92.527503 116.641449-192.402429 57.875227-196.611617 55.316357l-23.104443 37.316486zM810.674531 541.255826c1.593259 0.061448 159.716489 3.151404 187.368083-183.637313l-43.421782-6.430093c-21.809647 147.27766-137.682996 146.316438-142.603224 146.20671l-0.25457-0.004389h-0.368688l-0.719819 43.865085zM785.695923 386.630742c1.404525-0.750543 139.890734-77.134782 70.450119-252.731186l-40.814632 16.143264c55.206628 139.601051-45.971873 195.553833-50.303956 197.866911l20.668469 38.721011zM686.742717 265.205128c0.842715-1.351856 82.586096-136.748109-65.354325-254.09621l-27.282907 34.388928c117.620228 93.291214 57.967399 192.336592 55.377805 196.506277l37.259427 23.201005zM540.329717 209.524472c0.061448-1.593259 3.155793-159.720878-183.637313-187.376861l-6.430093 43.421782c148.50662 21.985212 146.369108 137.586435 146.20671 142.497884l43.860696 1.457195zM385.709022 234.50308c-0.750543-1.408915-77.134782-139.895124-252.731186-70.44573l16.143264 40.814632C287.572196 150.113046 344.679323 250.953584 347.040681 255.2725l38.668341-20.76942zM264.279019 333.451897c-1.351856-0.842715-136.748109-82.586096-254.09621 65.354325l34.388928 27.278518C137.862951 308.468901 236.90833 368.117341 241.078014 370.715713l23.201005-37.263816zM208.598364 479.856118c-1.593259-0.05267-159.720878-3.147015-187.376862 183.641702l43.421782 6.430093c21.985212-148.497842 137.586435-146.369108 142.497884-146.206709l1.457196-43.865086zM233.576971 634.485592c-1.404525 0.754932-139.890734 77.14356-70.44573 252.735575l40.814632-16.143264c-54.754547-138.451096 46.085991-195.562612 50.400518-197.928359l-20.76942-38.663952zM332.525788 755.915595c-0.842715 1.356245-82.577318 136.748109 65.354325 254.100599l27.278518-34.384539C307.547181 882.336052 367.191232 783.286284 369.789604 779.116599l-37.263816-23.201004z" fill="#6E6E96" p-id="52074"></path><path d="M84.670939 519.512017c0-238.053896 192.977407-431.031303 431.040081-431.031303 238.040728 0 431.026913 192.977407 431.026913 431.031303 0 52.717985-9.480547 103.215064-26.800101 149.902367 24.377295-55.908891 37.922187-117.633395 37.922187-182.513693 0-252.511729-204.696416-457.208146-457.203757-457.208145-252.516119 0-457.216924 204.700805-457.216923 457.212535 0 206.188725 136.497928 380.472776 324.054744 437.483341-165.044907-60.434096-282.823144-218.908458-282.823144-404.876405z" fill="#FFFFFF" opacity=".15" p-id="52075"></path><path d="M538.01225 573.423848l2.128734 150.968929-43.887031 0.618869-2.128734-150.968929zM588.816569 522.874099l116.983802 63.142197-20.848424 38.62445-116.979413-63.146586zM558.246195 455.808009l116.149865-70.766136 22.836706 37.483272-116.149865 70.766137zM494.160332 305.365778h43.89142v137.599602h-43.89142zM442.776647 484.793903L319.332027 413.518626l21.945711-38.005581 123.444619 71.275277zM464.990094 565.444388l-129.585028 77.341071-22.494353-37.685173 129.589418-77.341072z" fill="#6E6E96" p-id="52076"></path><path d="M516.997038 16.007201C246.344985 16.007201 26.944943 235.411632 26.944943 506.063685c0 270.647664 219.400042 490.052095 490.052095 490.052096 270.647664 0 490.047706-219.404431 490.047706-490.052096 0-270.652053-219.400042-490.056484-490.047706-490.056484z m-19.751139 909.882307c-247.622225 0-448.355246-200.733021-448.355246-448.355246S249.623674 29.179016 497.245899 29.179016s448.350857 200.73741 448.350857 448.355246c0 247.622225-200.728632 448.355246-448.350857 448.355246z" fill="#6E6E96" opacity=".25" p-id="52077"></path><path d="M511.997805 43.89142c258.116664 0 468.106385 209.994111 468.106386 468.106385s-209.994111 468.106385-468.106386 468.106386S43.89142 770.114469 43.89142 511.997805 253.885531 43.89142 511.997805 43.89142zM0 511.997805c0 282.322782 229.683802 511.997805 511.997805 511.997806 282.322782 0 511.997805-229.675023 511.997806-511.997806C1024 229.683802 794.320587 0 511.997805 0 229.683802 0 0 229.683802 0 511.997805z" fill="#6E6E96" p-id="52078"></path></svg>